<svg id="Layer_1" data-name="Layer 1" xmlns="http://www.w3.org/2000/svg" viewBox="0 0 944.96 28.74"><defs><style>.cls-1{fill:none;stroke:#000;stroke-miterlimit:10;stroke-width:2px;}</style></defs><title>corte</title><polyline class="cls-1" points="944.42 1.44 944.19 1.29 919.37 27.29 894.55 1.29 869.74 27.29 844.92 1.29 820.11 27.29 795.29 1.29 770.47 27.29 745.66 1.29 720.84 27.29 696.02 1.29 671.2 27.29 646.38 1.29 621.56 27.29 596.74 1.29 571.93 27.29 547.11 1.29 522.29 27.29 497.46 1.29 472.64 27.29 447.83 1.29 423.01 27.29 398.19 1.29 373.36 27.29 348.54 1.29 323.72 27.29 298.89 1.29 274.07 27.29 249.25 1.29 224.43 27.29 199.61 1.29 174.79 27.29 149.97 1.29 125.14 27.29 100.31 1.29 75.49 27.29 50.66 1.29 25.83 27.29 1 1.29 1 1.79"/></svg>