<svg id="Layer_1" data-name="Layer 1" xmlns="http://www.w3.org/2000/svg" viewBox="0 0 944.68 28.9"><defs><style>.cls-1{fill:none;stroke:#000;stroke-miterlimit:10;stroke-width:2px;}</style></defs><title>ticketTop</title><polyline class="cls-1" points="0.54 27.3 0.77 27.45 25.59 1.45 50.41 27.45 75.22 1.45 100.04 27.45 124.85 1.45 149.67 27.45 174.49 1.45 199.3 27.45 224.12 1.45 248.94 27.45 273.76 1.45 298.58 27.45 323.4 1.45 348.22 27.45 373.03 1.45 397.85 27.45 422.68 1.45 447.5 27.45 472.31 1.45 497.13 27.45 521.95 1.45 546.78 27.45 571.6 1.45 596.42 27.45 621.24 1.45 646.07 27.45 670.89 1.45 695.71 27.45 720.53 1.45 745.35 27.45 770.17 1.45 795 27.45 819.82 1.45 844.65 27.45 869.47 1.45 894.3 27.45 919.13 1.45 943.96 27.45"/></svg>